<svg xmlns="http://www.w3.org/2000/svg" xmlns:xlink="http://www.w3.org/1999/xlink" width="300" zoomAndPan="magnify" viewBox="0 0 224.87999 112.499997" height="150" preserveAspectRatio="xMidYMid meet" version="1.0"><defs><g/><clipPath id="e7e471146e"><rect x="0" width="195" y="0" height="61"/></clipPath><clipPath id="e26b67c0a3"><path d="M 55.394531 21.113281 L 86.710938 21.113281 L 86.710938 55.222656 L 55.394531 55.222656 Z M 55.394531 21.113281 " clip-rule="nonzero"/></clipPath><clipPath id="8f9906b1c7"><path d="M 0.394531 0.113281 L 31.710938 0.113281 L 31.710938 34.222656 L 0.394531 34.222656 Z M 0.394531 0.113281 " clip-rule="nonzero"/></clipPath><clipPath id="c7e4a950f9"><rect x="0" width="32" y="0" height="35"/></clipPath><clipPath id="656af964c2"><rect x="0" width="148" y="0" height="62"/></clipPath></defs><g transform="matrix(1, 0, 0, 1, 28, 50)"><g clip-path="url(#e7e471146e)"><g fill="#ffffff" fill-opacity="1"><g transform="translate(1.029371, 47.607365)"><g><path d="M 24.015625 -16.8125 C 24.628906 -16.53125 25.242188 -15.976562 25.859375 -15.15625 C 27.097656 -13.519531 27.71875 -11.347656 27.71875 -8.640625 C 27.71875 -5.335938 26.285156 -2.90625 23.421875 -1.34375 C 21.972656 -0.570312 20.523438 -0.125 19.078125 0 L 2.765625 0 L 2.765625 -30.015625 L 16.671875 -30.015625 C 17.804688 -30.015625 19.023438 -29.769531 20.328125 -29.28125 C 22.878906 -28.300781 24.507812 -26.59375 25.21875 -24.15625 C 25.738281 -22.394531 25.691406 -20.640625 25.078125 -18.890625 C 24.773438 -18.023438 24.421875 -17.332031 24.015625 -16.8125 Z M 9.96875 -24.4375 L 9.96875 -17.734375 L 16.390625 -17.734375 C 17.316406 -17.734375 18.117188 -18.054688 18.796875 -18.703125 C 19.441406 -19.347656 19.765625 -20.132812 19.765625 -21.0625 C 19.765625 -22.019531 19.441406 -22.820312 18.796875 -23.46875 C 18.117188 -24.113281 17.316406 -24.4375 16.390625 -24.4375 Z M 22.078125 -8.875 C 22.078125 -9.789062 21.753906 -10.585938 21.109375 -11.265625 C 20.460938 -11.910156 19.675781 -12.234375 18.75 -12.234375 L 9.96875 -12.234375 L 9.96875 -5.546875 L 18.75 -5.546875 C 19.675781 -5.546875 20.460938 -5.867188 21.109375 -6.515625 C 21.753906 -7.160156 22.078125 -7.945312 22.078125 -8.875 Z M 22.078125 -8.875 "/></g></g></g><g fill="#ffffff" fill-opacity="1"><g transform="translate(38.478036, 47.607365)"><g><path d="M 16.171875 -29.890625 C 20.441406 -29.890625 24.085938 -28.378906 27.109375 -25.359375 C 30.128906 -22.335938 31.640625 -18.6875 31.640625 -14.40625 C 31.640625 -10.125 30.128906 -6.476562 27.109375 -3.46875 C 24.085938 -0.445312 20.441406 1.0625 16.171875 1.0625 C 11.890625 1.0625 8.238281 -0.445312 5.21875 -3.46875 C 2.195312 -6.476562 0.6875 -10.125 0.6875 -14.40625 C 0.6875 -18.6875 2.195312 -22.335938 5.21875 -25.359375 C 8.238281 -28.378906 11.890625 -29.890625 16.171875 -29.890625 Z M 22.546875 -8.03125 C 24.296875 -9.789062 25.171875 -11.914062 25.171875 -14.40625 C 25.171875 -16.90625 24.296875 -19.03125 22.546875 -20.78125 C 20.785156 -22.539062 18.660156 -23.421875 16.171875 -23.421875 C 13.671875 -23.421875 11.546875 -22.539062 9.796875 -20.78125 C 8.035156 -19.03125 7.15625 -16.90625 7.15625 -14.40625 C 7.15625 -11.914062 8.035156 -9.789062 9.796875 -8.03125 C 11.609375 -6.28125 13.734375 -5.40625 16.171875 -5.40625 C 18.597656 -5.40625 20.722656 -6.28125 22.546875 -8.03125 Z M 22.546875 -8.03125 "/></g></g></g><g fill="#ffffff" fill-opacity="1"><g transform="translate(74.863876, 47.607365)"><g><path d="M 24.4375 0 L 22.265625 -4.203125 L 10.953125 -4.203125 L 8.78125 0 L 0.46875 0 L 16.625 -30.015625 L 32.75 0 Z M 19.359375 -9.84375 L 16.625 -15.109375 L 13.859375 -9.84375 Z M 19.359375 -9.84375 "/></g></g></g><g fill="#ffffff" fill-opacity="1"><g transform="translate(117.530296, 47.607365)"><g><path d="M 26.46875 -19.765625 C 26.46875 -17.828125 25.972656 -16.023438 24.984375 -14.359375 C 23.785156 -12.390625 22.09375 -11.019531 19.90625 -10.25 L 26.375 0 L 18.296875 0 L 12.015625 -9.5625 L 8.59375 -9.5625 L 8.59375 0 L 1.390625 0 L 1.390625 -30.015625 L 15.75 -30.015625 C 19.164062 -30.015625 21.875 -28.894531 23.875 -26.65625 C 25.601562 -24.675781 26.46875 -22.378906 26.46875 -19.765625 Z M 8.59375 -23.5625 L 8.59375 -16.03125 L 15.703125 -16.03125 C 16.691406 -16.03125 17.476562 -16.164062 18.0625 -16.4375 C 18.550781 -16.71875 18.90625 -16.984375 19.125 -17.234375 C 19.425781 -17.597656 19.65625 -18.023438 19.8125 -18.515625 C 19.9375 -18.953125 20 -19.367188 20 -19.765625 C 20 -20.203125 19.9375 -20.632812 19.8125 -21.0625 C 19.625 -21.550781 19.363281 -21.984375 19.03125 -22.359375 C 18.351562 -23.160156 17.257812 -23.5625 15.75 -23.5625 Z M 8.59375 -23.5625 "/></g></g></g><g fill="#ffffff" fill-opacity="1"><g transform="translate(154.840668, 47.607365)"><g><path d="M 12.796875 -29.84375 C 16.921875 -29.84375 20.460938 -28.378906 23.421875 -25.453125 C 26.347656 -22.523438 27.8125 -18.984375 27.8125 -14.828125 C 27.8125 -10.703125 26.347656 -7.160156 23.421875 -4.203125 C 20.460938 -1.273438 16.921875 0.1875 12.796875 0.1875 L 1.390625 0.1875 L 1.390625 -29.84375 Z M 18.515625 -9.09375 C 20.085938 -10.664062 20.875 -12.578125 20.875 -14.828125 C 20.875 -17.046875 20.085938 -18.96875 18.515625 -20.59375 C 16.953125 -22.164062 15.03125 -22.953125 12.75 -22.953125 L 8.59375 -22.953125 L 8.59375 -6.75 L 12.796875 -6.75 C 15.046875 -6.75 16.953125 -7.53125 18.515625 -9.09375 Z M 18.515625 -9.09375 "/></g></g></g></g></g><g clip-path="url(#e26b67c0a3)"><g transform="matrix(1, 0, 0, 1, 55, 21)"><g clip-path="url(#c7e4a950f9)"><g clip-path="url(#8f9906b1c7)"><path fill="#5170ff" d="M 0.394531 0.113281 L 31.710938 0.113281 L 31.710938 34.246094 L 0.394531 34.246094 Z M 0.394531 0.113281 " fill-opacity="1" fill-rule="nonzero"/></g></g></g></g><g transform="matrix(1, 0, 0, 1, 26, 2)"><g clip-path="url(#656af964c2)"><g fill="#ffffff" fill-opacity="1"><g transform="translate(1.110164, 47.980814)"><g><path d="M 18.515625 -23.78125 L 18.515625 -17.3125 L 13.203125 -17.3125 L 13.203125 0 L 6.75 0 L 6.75 -17.3125 L 1.390625 -17.3125 L 1.390625 -23.78125 L 6.75 -23.78125 L 6.75 -32.09375 L 13.203125 -32.09375 L 13.203125 -23.78125 Z M 18.515625 -23.78125 "/></g></g></g><g fill="#ffffff" fill-opacity="1"><g transform="translate(32.603538, 47.980814)"><g><path d="M 18.46875 -23.875 L 24.9375 -23.875 L 24.9375 0 L 18.46875 0 L 18.46875 -2.671875 C 17.144531 -0.953125 15.144531 -0.09375 12.46875 -0.09375 C 9.207031 -0.0625 6.40625 -1.203125 4.0625 -3.515625 C 1.71875 -5.816406 0.535156 -8.617188 0.515625 -11.921875 C 0.484375 -15.179688 1.617188 -17.984375 3.921875 -20.328125 C 6.234375 -22.660156 9.035156 -23.84375 12.328125 -23.875 C 15.035156 -23.875 17.082031 -23 18.46875 -21.25 Z M 16.53125 -7.859375 C 17.675781 -8.992188 18.25 -10.378906 18.25 -12.015625 C 18.25 -13.671875 17.660156 -15.054688 16.484375 -16.171875 C 15.316406 -17.335938 13.945312 -17.890625 12.375 -17.828125 C 10.75 -17.828125 9.363281 -17.257812 8.21875 -16.125 C 7.082031 -14.976562 6.515625 -13.59375 6.515625 -11.96875 C 6.515625 -10.363281 7.097656 -8.976562 8.265625 -7.8125 C 9.398438 -6.664062 10.785156 -6.09375 12.421875 -6.09375 C 14.085938 -6.15625 15.457031 -6.742188 16.53125 -7.859375 Z M 16.53125 -7.859375 "/></g></g></g><g fill="#ffffff" fill-opacity="1"><g transform="translate(71.022909, 47.980814)"><g><path d="M 11 0 C 9.394531 0 7.992188 -0.242188 6.796875 -0.734375 C 5.835938 -1.078125 4.847656 -1.707031 3.828125 -2.625 C 2.078125 -4.257812 1.28125 -6.328125 1.4375 -8.828125 L 1.4375 -9.328125 L 6.609375 -9.234375 L 7.015625 -9.234375 L 7.015625 -8.875 C 7.046875 -8.101562 7.21875 -7.46875 7.53125 -6.96875 C 8.050781 -6.082031 9.207031 -5.640625 11 -5.640625 C 12.46875 -5.640625 13.523438 -5.804688 14.171875 -6.140625 C 14.515625 -6.296875 14.75 -6.5 14.875 -6.75 C 14.9375 -6.832031 14.96875 -6.921875 14.96875 -7.015625 L 15.015625 -7.25 C 15.015625 -7.894531 14.503906 -8.421875 13.484375 -8.828125 C 13.085938 -8.972656 12.625 -9.09375 12.09375 -9.1875 C 11.695312 -9.28125 11.253906 -9.359375 10.765625 -9.421875 C 8.910156 -9.609375 7.367188 -9.976562 6.140625 -10.53125 C 4.910156 -11.019531 3.894531 -11.695312 3.09375 -12.5625 C 1.988281 -13.820312 1.4375 -15.269531 1.4375 -16.90625 C 1.4375 -17.914062 1.617188 -18.851562 1.984375 -19.71875 C 2.265625 -20.394531 2.632812 -20.992188 3.09375 -21.515625 C 4.757812 -23.429688 7.421875 -24.390625 11.078125 -24.390625 C 13.265625 -24.390625 15.113281 -23.957031 16.625 -23.09375 C 17.789062 -22.445312 18.726562 -21.570312 19.4375 -20.46875 C 20 -19.632812 20.382812 -18.660156 20.59375 -17.546875 C 20.65625 -17.179688 20.703125 -16.828125 20.734375 -16.484375 L 20.734375 -15.515625 L 15.15625 -15.515625 L 15.15625 -16.21875 C 15.125 -16.332031 15.109375 -16.453125 15.109375 -16.578125 C 15.015625 -16.921875 14.890625 -17.195312 14.734375 -17.40625 C 14.054688 -18.332031 12.835938 -18.796875 11.078125 -18.796875 C 8.492188 -18.796875 7.203125 -18.257812 7.203125 -17.1875 C 7.203125 -16.625 7.507812 -16.175781 8.125 -15.84375 C 8.769531 -15.4375 9.863281 -15.144531 11.40625 -14.96875 C 14.945312 -14.59375 17.519531 -13.46875 19.125 -11.59375 C 20.195312 -10.332031 20.734375 -8.882812 20.734375 -7.25 L 20.734375 -6.921875 L 20.6875 -6.515625 C 20.6875 -6.109375 20.640625 -5.738281 20.546875 -5.40625 C 20.304688 -4.414062 19.847656 -3.535156 19.171875 -2.765625 C 18.398438 -1.847656 17.320312 -1.15625 15.9375 -0.6875 C 14.550781 -0.226562 12.90625 0 11 0 Z M 11 0 "/></g></g></g><g fill="#ffffff" fill-opacity="1"><g transform="translate(106.071842, 47.980814)"><g><path d="M 17.78125 0 L 10.0625 -9.234375 L 7.859375 -7.0625 L 7.859375 0 L 1.390625 0 L 1.390625 -32.09375 L 7.859375 -32.09375 L 7.859375 -16.21875 L 15.421875 -23.78125 L 24.578125 -23.734375 L 14.59375 -13.8125 L 26.375 0 Z M 17.78125 0 "/></g></g></g></g></g></svg>